<svg xmlns="http://www.w3.org/2000/svg" viewBox="0 0 44.95 53.55">
  <title>hand</title>
  <g id="Layer_2" data-name="Layer 2">
    <g id="图层_1" data-name="图层 1">
      <g>
        <path d="M19.27,53.55c-.51-.09-1-.15-1.53-.27A12.08,12.08,0,0,1,11.83,50C8.48,46.57,5.09,43.17,1.72,39.76a5.59,5.59,0,0,1-1.3-6.15,5.46,5.46,0,0,1,9-1.77c1,1,2,2.05,3,3.08l.33.33v-.32q0-11.89,0-23.79a5.41,5.41,0,0,1,2-4.39,5.3,5.3,0,0,1,5.59-.91,5.37,5.37,0,0,1,3.5,4.48,6,6,0,0,1,0,.89q0,6.07,0,12.14v.28c.3-.05.58-.12.86-.15a5.83,5.83,0,0,1,5.06,1.79.21.21,0,0,0,.3.05,5.48,5.48,0,0,1,6.69,1.15l.09.1c.41-.16.78-.34,1.18-.45a5.35,5.35,0,0,1,6.79,4.23,6.94,6.94,0,0,1,.11,1.2q0,8.18,0,16.36a5.57,5.57,0,0,1-4.47,5.54l-.59.11ZM15.2,25.29q0,6.93,0,13.86,0,.32,0,.65a.62.62,0,0,1-.4.64.61.61,0,0,1-.71-.18l-.56-.58L7.67,33.61a2.94,2.94,0,0,0-3.28-.72A3.08,3.08,0,0,0,3.44,38L13.73,48.38a7.69,7.69,0,0,0,1.74,1.35,9.58,9.58,0,0,0,4.73,1.35q9.53,0,19.06,0a3.1,3.1,0,0,0,3.22-3.22q0-8.12,0-16.24a5.06,5.06,0,0,0,0-.67,2.88,2.88,0,0,0-3.61-2.47A3,3,0,0,0,36.95,30a.94.94,0,0,1-.42.39c-.38.15-.73-.12-.8-.59A3,3,0,0,0,30,28.73a1.83,1.83,0,0,1-.1.17.59.59,0,0,1-.62.26.59.59,0,0,1-.49-.48c0-.13,0-.26-.08-.39a3.35,3.35,0,0,0-4-2.29,3.28,3.28,0,0,0-2.19,1.56.6.6,0,0,1-.7.3.61.61,0,0,1-.46-.61c0-.07,0-.15,0-.22q0-7.85,0-15.71c0-.13,0-.25,0-.38A3.09,3.09,0,0,0,17,8.2a3,3,0,0,0-1.83,2.9Q15.19,18.2,15.2,25.29Z" fill="#93bc8e"/>
        <path d="M19,0c.48.07,1,.12,1.43.21a11,11,0,0,1,8.61,8.48,10.79,10.79,0,0,1-2.49,9.57l-.17.18-.06,0c0-.07,0-.13,0-.19q0-2.28,0-4.55a1.36,1.36,0,0,1,.06-.37A8.42,8.42,0,1,0,10,10a8.29,8.29,0,0,0,.21,3.14,1.26,1.26,0,0,1,.05.31q0,2.42,0,4.84s0,.07,0,.11l-.06.06a1.41,1.41,0,0,0-.11-.18A10.76,10.76,0,0,1,7.37,9.94,10.94,10.94,0,0,1,15.45.39C16.07.22,16.72.15,17.35,0l.26,0Z" fill="#93bc8e"/>
      </g>
    </g>
  </g>
</svg>
