<svg xmlns="http://www.w3.org/2000/svg" viewBox="0 0 605.25 13.22">
  <title>legend</title>
  <g id="Layer_2" data-name="Layer 2">
    <g id="图层_1" data-name="图层 1">
      <g>
        <g>
          <g>
            <path d="M23.62,8.36a1.82,1.82,0,0,0,.61,1.13,2.06,2.06,0,0,0,1.25.33,2.15,2.15,0,0,0,.68-.1,1.37,1.37,0,0,0,.47-.26,1.11,1.11,0,0,0,.28-.37,1,1,0,0,0,.1-.43A.8.8,0,0,0,26.72,8,2.22,2.22,0,0,0,26,7.65a9.4,9.4,0,0,0-1-.22,4.71,4.71,0,0,1-1-.27,1.92,1.92,0,0,1-.74-.52A1.4,1.4,0,0,1,23,5.7a1.62,1.62,0,0,1,.57-1.28,2.38,2.38,0,0,1,1.61-.5,2.75,2.75,0,0,1,1.64.45,2.06,2.06,0,0,1,.76,1.51h-.73a1.35,1.35,0,0,0-.55-1,2,2,0,0,0-1.13-.29,1.62,1.62,0,0,0-1,.29,1,1,0,0,0-.36.77.75.75,0,0,0,.29.64,2.4,2.4,0,0,0,.74.36c.3.09.62.17,1,.25a4.73,4.73,0,0,1,1,.31,2.09,2.09,0,0,1,.74.53,1.38,1.38,0,0,1,.29.94,1.57,1.57,0,0,1-.19.79,1.65,1.65,0,0,1-.53.57,2.44,2.44,0,0,1-.8.34,4.22,4.22,0,0,1-1,.11,2.73,2.73,0,0,1-1-.16,2.1,2.1,0,0,1-.73-.45,2.06,2.06,0,0,1-.47-.67,2.37,2.37,0,0,1-.19-.83Z" transform="translate(0 -0.57)" fill="#767676"/>
            <path d="M29.27,2.74V1.67h.79V2.74Zm0,7.57V4.09H30v6.22Z" transform="translate(0 -0.57)" fill="#767676"/>
            <path d="M31.39,10.31V9.67l4.13-5H31.67v-.6h4.78v.64l-4.13,5H36.6v.6Z" transform="translate(0 -0.57)" fill="#767676"/>
            <path d="M38.31,7.37a3.37,3.37,0,0,0,.13,1,2.3,2.3,0,0,0,.39.78,1.89,1.89,0,0,0,.65.53,2,2,0,0,0,.91.2,2,2,0,0,0,1.21-.37,1.79,1.79,0,0,0,.67-1.06h.8a3.9,3.9,0,0,1-.35.82,2.54,2.54,0,0,1-.54.66,2.32,2.32,0,0,1-.77.44,3.09,3.09,0,0,1-1,.16,3,3,0,0,1-1.29-.25,2.41,2.41,0,0,1-.89-.69,2.91,2.91,0,0,1-.52-1,4.67,4.67,0,0,1-.17-1.28,4.05,4.05,0,0,1,.2-1.28,3.28,3.28,0,0,1,.56-1,2.63,2.63,0,0,1,.89-.71,2.7,2.7,0,0,1,1.2-.26,2.48,2.48,0,0,1,2,.88,3.87,3.87,0,0,1,.72,2.56Zm4.05-.6a2.86,2.86,0,0,0-.12-.86,2,2,0,0,0-.37-.7,1.76,1.76,0,0,0-.62-.47,2,2,0,0,0-.85-.17,1.89,1.89,0,0,0-.85.18,2,2,0,0,0-.62.48,2.41,2.41,0,0,0-.41.7,3.21,3.21,0,0,0-.2.84Z" transform="translate(0 -0.57)" fill="#767676"/>
            <path d="M54,6.49H48V5.77h6Zm0,2.33H48V8.1h6Z" transform="translate(0 -0.57)" fill="#767676"/>
            <path d="M64.64,10.33l-.35.08a1.83,1.83,0,0,1-.48.06,1.14,1.14,0,0,1-.82-.27,1.31,1.31,0,0,1-.28-1V4.69h-.88v-.6h.88V2.36h.72V4.09H64.6v.6H63.43V9c0,.15,0,.28,0,.4a.66.66,0,0,0,.07.28.34.34,0,0,0,.19.16,1,1,0,0,0,.35,0l.29,0,.29-.06Z" transform="translate(0 -0.57)" fill="#767676"/>
            <path d="M68.27,10.48a3.24,3.24,0,0,1-1.12-.22,2.51,2.51,0,0,1-.91-.61,3,3,0,0,1-.62-1,4.08,4.08,0,0,1-.23-1.43,4.34,4.34,0,0,1,.18-1.28,3,3,0,0,1,.54-1,2.56,2.56,0,0,1,.9-.7,2.89,2.89,0,0,1,1.26-.26,2.92,2.92,0,0,1,1.27.26,2.59,2.59,0,0,1,.9.7,2.87,2.87,0,0,1,.53,1,4.57,4.57,0,0,1,.17,1.28,4.15,4.15,0,0,1-.2,1.34,3,3,0,0,1-.58,1,2.55,2.55,0,0,1-.91.67A2.91,2.91,0,0,1,68.27,10.48ZM70.38,7.2a4.24,4.24,0,0,0-.12-1,2.44,2.44,0,0,0-.37-.83,1.79,1.79,0,0,0-.65-.56,2.11,2.11,0,0,0-1-.2,2,2,0,0,0-1,.22,1.88,1.88,0,0,0-.65.59,2.58,2.58,0,0,0-.37.84,4,4,0,0,0-.12,1,3.89,3.89,0,0,0,.14,1.06,2.51,2.51,0,0,0,.4.83,1.8,1.8,0,0,0,.66.54,2.07,2.07,0,0,0,.91.19,2,2,0,0,0,1-.22A1.86,1.86,0,0,0,69.89,9a2.67,2.67,0,0,0,.37-.84A3.9,3.9,0,0,0,70.38,7.2Z" transform="translate(0 -0.57)" fill="#767676"/>
            <path d="M74.65,10.33l-.35.08a1.83,1.83,0,0,1-.48.06,1.14,1.14,0,0,1-.82-.27,1.31,1.31,0,0,1-.28-1V4.69h-.88v-.6h.88V2.36h.72V4.09H74.6v.6H73.44V9c0,.15,0,.28,0,.4a.66.66,0,0,0,.07.28.34.34,0,0,0,.19.16,1,1,0,0,0,.35,0l.29,0,.29-.06Z" transform="translate(0 -0.57)" fill="#767676"/>
            <path d="M78.66,6.68l.49-.07a1.77,1.77,0,0,0,.46-.13.38.38,0,0,0,.22-.28,1.81,1.81,0,0,0,0-.37,1.23,1.23,0,0,0-.35-.91,1.65,1.65,0,0,0-1.19-.35,3.31,3.31,0,0,0-.68.07,1.5,1.5,0,0,0-.55.23,1.26,1.26,0,0,0-.38.43,1.83,1.83,0,0,0-.2.68h-.73A2.23,2.23,0,0,1,76,5a1.91,1.91,0,0,1,.56-.64A2.3,2.3,0,0,1,77.38,4a3.88,3.88,0,0,1,1-.11,3.7,3.7,0,0,1,.88.1,2.05,2.05,0,0,1,.72.32,1.52,1.52,0,0,1,.48.59,2.16,2.16,0,0,1,.17.91V9.24c0,.28,0,.46.15.53s.3.06.61-.05v.56l-.25.07a1.11,1.11,0,0,1-.32,0,1.42,1.42,0,0,1-.32,0,.56.56,0,0,1-.29-.11A.69.69,0,0,1,80,10a.89.89,0,0,1-.09-.28,1.94,1.94,0,0,1,0-.32,3.12,3.12,0,0,1-1,.77,3.08,3.08,0,0,1-1.27.26,2.84,2.84,0,0,1-.79-.11,1.89,1.89,0,0,1-.67-.34,1.66,1.66,0,0,1-.46-.56,1.69,1.69,0,0,1-.17-.79q0-1.58,2.17-1.87ZM79.87,7a3.52,3.52,0,0,1-.92.25l-.94.1a2.64,2.64,0,0,0-1.29.37,1.07,1.07,0,0,0-.46.95,1,1,0,0,0,.11.5,1,1,0,0,0,.3.35,1.26,1.26,0,0,0,.43.2,1.92,1.92,0,0,0,.5.07,3.25,3.25,0,0,0,.84-.11,2.28,2.28,0,0,0,.73-.33,1.7,1.7,0,0,0,.51-.56A1.64,1.64,0,0,0,79.87,8Z" transform="translate(0 -0.57)" fill="#767676"/>
            <path d="M82.58,10.31V1.67h.72v8.64Z" transform="translate(0 -0.57)" fill="#767676"/>
            <path d="M90.95,10.48a3.24,3.24,0,0,1-1.12-.22,2.51,2.51,0,0,1-.91-.61,3,3,0,0,1-.62-1,4.08,4.08,0,0,1-.23-1.43,4.34,4.34,0,0,1,.18-1.28,3,3,0,0,1,.54-1,2.56,2.56,0,0,1,.9-.7,2.89,2.89,0,0,1,1.26-.26,2.92,2.92,0,0,1,1.27.26,2.59,2.59,0,0,1,.9.7,2.87,2.87,0,0,1,.53,1,4.57,4.57,0,0,1,.17,1.28,4.15,4.15,0,0,1-.2,1.34,3,3,0,0,1-.58,1,2.55,2.55,0,0,1-.91.67A2.91,2.91,0,0,1,90.95,10.48ZM93.06,7.2a4.24,4.24,0,0,0-.12-1,2.44,2.44,0,0,0-.37-.83,1.79,1.79,0,0,0-.65-.56,2.11,2.11,0,0,0-1-.2,2,2,0,0,0-1,.22,1.88,1.88,0,0,0-.65.59,2.58,2.58,0,0,0-.37.84,4,4,0,0,0-.12,1A3.89,3.89,0,0,0,89,8.26a2.51,2.51,0,0,0,.4.83,1.8,1.8,0,0,0,.66.54,2.07,2.07,0,0,0,.91.19,2,2,0,0,0,1-.22A1.86,1.86,0,0,0,92.57,9a2.67,2.67,0,0,0,.37-.84A3.9,3.9,0,0,0,93.06,7.2Z" transform="translate(0 -0.57)" fill="#767676"/>
            <path d="M94.52,4.69v-.6h.92v-1a2,2,0,0,1,.3-1.18,1.15,1.15,0,0,1,1-.43h.31l.29,0v.66a1.81,1.81,0,0,0-.43-.06.78.78,0,0,0-.43.1.58.58,0,0,0-.23.27,1.19,1.19,0,0,0-.09.38c0,.14,0,.28,0,.43v.77h1.2v.6h-1.2v5.62h-.72V4.69Z" transform="translate(0 -0.57)" fill="#767676"/>
            <path d="M106.22,6A2.08,2.08,0,0,0,105.56,5a1.79,1.79,0,0,0-1.19-.39,1.86,1.86,0,0,0-.95.23,1.92,1.92,0,0,0-.65.61,2.71,2.71,0,0,0-.37.85,3.87,3.87,0,0,0-.12,1,4.09,4.09,0,0,0,.11,1,2.58,2.58,0,0,0,.37.84,1.87,1.87,0,0,0,.65.59,1.93,1.93,0,0,0,1,.22,1.84,1.84,0,0,0,1.29-.44,2.06,2.06,0,0,0,.62-1.22h.77a3.64,3.64,0,0,1-.31.94,2.49,2.49,0,0,1-.54.73,2.33,2.33,0,0,1-.79.47,3.36,3.36,0,0,1-2.33-.08,2.41,2.41,0,0,1-.89-.69,2.89,2.89,0,0,1-.52-1,4.73,4.73,0,0,1-.17-1.28A4.13,4.13,0,0,1,101.71,6a3.24,3.24,0,0,1,.55-1,2.65,2.65,0,0,1,.89-.73,2.7,2.7,0,0,1,1.23-.27,2.77,2.77,0,0,1,1.75.52A2.4,2.4,0,0,1,107,6Z" transform="translate(0 -0.57)" fill="#767676"/>
            <path d="M108.44,12l.29,0,.31,0a.67.67,0,0,0,.49-.19,1.63,1.63,0,0,0,.32-.46,3.76,3.76,0,0,0,.21-.56,2.66,2.66,0,0,1,.19-.5l-2.41-6.25h.8l2,5.34,2-5.34h.78l-2.32,6.13c-.14.39-.28.74-.41,1.06a4.81,4.81,0,0,1-.42.8,1.74,1.74,0,0,1-.49.5,1.17,1.17,0,0,1-.64.17l-.37,0-.32-.06Z" transform="translate(0 -0.57)" fill="#767676"/>
            <path d="M118.9,6A2.08,2.08,0,0,0,118.23,5,1.79,1.79,0,0,0,117,4.57a1.86,1.86,0,0,0-.95.23,1.92,1.92,0,0,0-.65.61,2.71,2.71,0,0,0-.37.85,3.87,3.87,0,0,0-.12,1,4.09,4.09,0,0,0,.11,1,2.58,2.58,0,0,0,.37.84,1.87,1.87,0,0,0,.65.59,1.93,1.93,0,0,0,1,.22,1.84,1.84,0,0,0,1.29-.44A2.06,2.06,0,0,0,119,8.16h.77a3.64,3.64,0,0,1-.31.94,2.49,2.49,0,0,1-.54.73,2.33,2.33,0,0,1-.79.47,3.36,3.36,0,0,1-2.33-.08,2.41,2.41,0,0,1-.89-.69,2.89,2.89,0,0,1-.52-1,4.73,4.73,0,0,1-.17-1.28A4.13,4.13,0,0,1,114.38,6a3.24,3.24,0,0,1,.55-1,2.65,2.65,0,0,1,.89-.73A2.7,2.7,0,0,1,117,3.92a2.77,2.77,0,0,1,1.75.52A2.4,2.4,0,0,1,119.63,6Z" transform="translate(0 -0.57)" fill="#767676"/>
            <path d="M121.27,10.31V1.67H122v8.64Z" transform="translate(0 -0.57)" fill="#767676"/>
            <path d="M124.27,7.37a3.37,3.37,0,0,0,.13,1,2.3,2.3,0,0,0,.39.78,1.89,1.89,0,0,0,.65.53,2,2,0,0,0,.91.2,2,2,0,0,0,1.21-.37,1.79,1.79,0,0,0,.67-1.06h.8a3.9,3.9,0,0,1-.35.82,2.54,2.54,0,0,1-.54.66,2.32,2.32,0,0,1-.77.44,3.09,3.09,0,0,1-1,.16,3,3,0,0,1-1.29-.25,2.41,2.41,0,0,1-.89-.69,2.91,2.91,0,0,1-.52-1,4.67,4.67,0,0,1-.17-1.28,4.05,4.05,0,0,1,.2-1.28,3.28,3.28,0,0,1,.56-1,2.63,2.63,0,0,1,.89-.71,2.7,2.7,0,0,1,1.2-.26,2.48,2.48,0,0,1,2,.88,3.87,3.87,0,0,1,.72,2.56Zm4.05-.6a2.86,2.86,0,0,0-.12-.86,2,2,0,0,0-.37-.7,1.76,1.76,0,0,0-.62-.47,2,2,0,0,0-.85-.17,1.89,1.89,0,0,0-.85.18,2,2,0,0,0-.62.48,2.41,2.41,0,0,0-.41.7,3.21,3.21,0,0,0-.2.84Z" transform="translate(0 -0.57)" fill="#767676"/>
            <path d="M134.46,10.31h-.72V4.09h.72V5h0a1.89,1.89,0,0,1,.79-.82,2.3,2.3,0,0,1,1.13-.28,2.44,2.44,0,0,1,.73.1,1.68,1.68,0,0,1,.51.26,1.48,1.48,0,0,1,.35.38,2.63,2.63,0,0,1,.23.47,2.1,2.1,0,0,1,.83-.91,2.39,2.39,0,0,1,1.19-.29,2.09,2.09,0,0,1,1,.21,1.52,1.52,0,0,1,.58.55,2.16,2.16,0,0,1,.27.79,6.2,6.2,0,0,1,.07.91v3.92h-.72V6A1.75,1.75,0,0,0,141.19,5a1.23,1.23,0,0,0-1-.38,1.75,1.75,0,0,0-1.4.71,1.36,1.36,0,0,0-.2.37,3,3,0,0,0-.13.44,3.64,3.64,0,0,0-.07.46c0,.15,0,.29,0,.42v3.35h-.72V6A1.75,1.75,0,0,0,137.32,5a1.22,1.22,0,0,0-1-.38,1.74,1.74,0,0,0-1.4.71,1.39,1.39,0,0,0-.2.37,3,3,0,0,0-.13.44,3.47,3.47,0,0,0-.07.46c0,.15,0,.29,0,.42Z" transform="translate(0 -0.57)" fill="#767676"/>
            <path d="M143.9,2.74V1.67h.79V2.74Zm0,7.57V4.09h.72v6.22Z" transform="translate(0 -0.57)" fill="#767676"/>
            <path d="M147.22,10.31h-.72V4.09h.72V5a4.54,4.54,0,0,1,.89-.74,2.06,2.06,0,0,1,1.11-.29,2.82,2.82,0,0,1,1.07.2,1.82,1.82,0,0,1,.83.69,1.56,1.56,0,0,1,.27.69,6.18,6.18,0,0,1,0,.74v4.07h-.72V6.25A1.85,1.85,0,0,0,150.34,5a1.58,1.58,0,0,0-1.24-.42,1.74,1.74,0,0,0-.61.1,1.91,1.91,0,0,0-.5.27,1.8,1.8,0,0,0-.38.38,1.78,1.78,0,0,0-.24.46,2.27,2.27,0,0,0-.13.58c0,.18,0,.38,0,.6Z" transform="translate(0 -0.57)" fill="#767676"/>
            <path d="M157.38,4.09h.72v6.22h-.72V9.44l-.32.35a2.53,2.53,0,0,1-.41.33,2.41,2.41,0,0,1-.55.25,2.34,2.34,0,0,1-.72.1,2.73,2.73,0,0,1-1-.17,1.71,1.71,0,0,1-.68-.49,1.93,1.93,0,0,1-.37-.73,3.44,3.44,0,0,1-.11-.91V4.09h.72V8.17a1.81,1.81,0,0,0,.37,1.23,1.55,1.55,0,0,0,1.22.43,1.78,1.78,0,0,0,.8-.17,1.66,1.66,0,0,0,.59-.49,2.33,2.33,0,0,0,.37-.74,3.24,3.24,0,0,0,.13-.95Z" transform="translate(0 -0.57)" fill="#767676"/>
            <path d="M162,10.33l-.35.08a1.84,1.84,0,0,1-.48.06,1.14,1.14,0,0,1-.82-.27,1.31,1.31,0,0,1-.28-1V4.69h-.88v-.6h.88V2.36h.72V4.09H162v.6h-1.16V9c0,.15,0,.28,0,.4a.66.66,0,0,0,.07.28.34.34,0,0,0,.19.16,1,1,0,0,0,.35,0l.29,0,.29-.06Z" transform="translate(0 -0.57)" fill="#767676"/>
            <path d="M163.62,7.37a3.34,3.34,0,0,0,.13,1,2.3,2.3,0,0,0,.39.78,1.88,1.88,0,0,0,.65.53,2,2,0,0,0,.91.2,2,2,0,0,0,1.21-.37,1.79,1.79,0,0,0,.67-1.06h.8a3.9,3.9,0,0,1-.35.82,2.56,2.56,0,0,1-.54.66,2.33,2.33,0,0,1-.77.44,3.09,3.09,0,0,1-1,.16,3,3,0,0,1-1.28-.25,2.41,2.41,0,0,1-.89-.69,2.93,2.93,0,0,1-.52-1,4.67,4.67,0,0,1-.17-1.28,4.08,4.08,0,0,1,.2-1.28,3.27,3.27,0,0,1,.56-1,2.62,2.62,0,0,1,.89-.71,2.7,2.7,0,0,1,1.2-.26,2.48,2.48,0,0,1,2,.88,3.88,3.88,0,0,1,.72,2.56Zm4.06-.6a2.86,2.86,0,0,0-.13-.86,2,2,0,0,0-.37-.7,1.76,1.76,0,0,0-.62-.47,2,2,0,0,0-.85-.17,1.89,1.89,0,0,0-.85.18,2,2,0,0,0-.62.48,2.44,2.44,0,0,0-.41.7,3.25,3.25,0,0,0-.2.84Z" transform="translate(0 -0.57)" fill="#767676"/>
            <path d="M170.27,8.36a1.83,1.83,0,0,0,.61,1.13,2.06,2.06,0,0,0,1.25.33,2.16,2.16,0,0,0,.68-.1,1.36,1.36,0,0,0,.47-.26,1.12,1.12,0,0,0,.28-.37,1,1,0,0,0,.1-.43.79.79,0,0,0-.29-.68,2.21,2.21,0,0,0-.74-.35,9.46,9.46,0,0,0-1-.22,4.72,4.72,0,0,1-1-.27,1.91,1.91,0,0,1-.74-.52,1.39,1.39,0,0,1-.29-.95,1.62,1.62,0,0,1,.57-1.28,2.38,2.38,0,0,1,1.61-.5,2.75,2.75,0,0,1,1.64.45,2.06,2.06,0,0,1,.76,1.51h-.73a1.35,1.35,0,0,0-.55-1,2,2,0,0,0-1.13-.29,1.62,1.62,0,0,0-1,.29,1,1,0,0,0-.36.77.75.75,0,0,0,.29.64,2.39,2.39,0,0,0,.74.36q.44.14,1,.25a4.76,4.76,0,0,1,1,.31,2.11,2.11,0,0,1,.74.53,1.38,1.38,0,0,1,.29.94,1.57,1.57,0,0,1-.19.79,1.66,1.66,0,0,1-.53.57,2.42,2.42,0,0,1-.8.34,4.22,4.22,0,0,1-1,.11,2.72,2.72,0,0,1-1-.16,2.11,2.11,0,0,1-.73-.45,2.06,2.06,0,0,1-.47-.67,2.37,2.37,0,0,1-.19-.83Z" transform="translate(0 -0.57)" fill="#767676"/>
            <path d="M184,1.67h.72v8.64H184V9.22h0a1.94,1.94,0,0,1-.4.55,2.43,2.43,0,0,1-.54.39,2.86,2.86,0,0,1-.61.24,2.36,2.36,0,0,1-.61.08,3,3,0,0,1-1.28-.25,2.37,2.37,0,0,1-.87-.69,2.8,2.8,0,0,1-.5-1A5.07,5.07,0,0,1,179,7.21,4.59,4.59,0,0,1,179.16,6a3.1,3.1,0,0,1,.51-1,2.54,2.54,0,0,1,.86-.72,2.65,2.65,0,0,1,1.23-.27,2.86,2.86,0,0,1,1.27.29,2.23,2.23,0,0,1,1,.87Zm0,5.51a3.4,3.4,0,0,0-.14-1,2.59,2.59,0,0,0-.41-.83,2,2,0,0,0-.66-.56,1.84,1.84,0,0,0-.88-.21,2,2,0,0,0-1,.22,1.91,1.91,0,0,0-.67.61,2.63,2.63,0,0,0-.38.89,4,4,0,0,0-.1,1.1,3.07,3.07,0,0,0,.16,1,2.23,2.23,0,0,0,.45.76,1.93,1.93,0,0,0,.67.47,2.15,2.15,0,0,0,.84.16,1.94,1.94,0,0,0,.9-.2,1.9,1.9,0,0,0,.66-.56,2.57,2.57,0,0,0,.4-.84A3.84,3.84,0,0,0,184,7.18Z" transform="translate(0 -0.57)" fill="#767676"/>
            <path d="M190.73,4.09h.72v6.22h-.72V9.44l-.32.35a2.53,2.53,0,0,1-.41.33,2.41,2.41,0,0,1-.55.25,2.34,2.34,0,0,1-.72.1,2.73,2.73,0,0,1-1-.17,1.71,1.71,0,0,1-.68-.49,1.93,1.93,0,0,1-.37-.73,3.44,3.44,0,0,1-.11-.91V4.09h.72V8.17a1.81,1.81,0,0,0,.37,1.23,1.55,1.55,0,0,0,1.22.43,1.78,1.78,0,0,0,.8-.17,1.66,1.66,0,0,0,.59-.49,2.33,2.33,0,0,0,.37-.74,3.24,3.24,0,0,0,.13-.95Z" transform="translate(0 -0.57)" fill="#767676"/>
            <path d="M193.94,10.31h-.72V4.09h.72V5.26h0a2.08,2.08,0,0,1,.77-1A2.36,2.36,0,0,1,196,3.92V4.7a2.09,2.09,0,0,0-1,.19,1.67,1.67,0,0,0-.63.55,2.18,2.18,0,0,0-.32.82,5.34,5.34,0,0,0-.09,1Z" transform="translate(0 -0.57)" fill="#767676"/>
            <path d="M197.25,2.74V1.67H198V2.74Zm0,7.57V4.09H198v6.22Z" transform="translate(0 -0.57)" fill="#767676"/>
            <path d="M200.57,10.31h-.72V4.09h.72V5a4.54,4.54,0,0,1,.89-.74,2.06,2.06,0,0,1,1.11-.29,2.82,2.82,0,0,1,1.07.2,1.82,1.82,0,0,1,.83.69,1.56,1.56,0,0,1,.27.69,6.18,6.18,0,0,1,0,.74v4.07h-.72V6.25A1.85,1.85,0,0,0,203.69,5a1.58,1.58,0,0,0-1.24-.42,1.74,1.74,0,0,0-.61.1,1.91,1.91,0,0,0-.5.27,1.8,1.8,0,0,0-.38.38,1.78,1.78,0,0,0-.24.46,2.27,2.27,0,0,0-.13.58c0,.18,0,.38,0,.6Z" transform="translate(0 -0.57)" fill="#767676"/>
            <path d="M211.32,4.09H212V9.71a5.51,5.51,0,0,1-.13,1.19,2.56,2.56,0,0,1-.45,1,2.25,2.25,0,0,1-.89.69,4.15,4.15,0,0,1-2.63.08,2.55,2.55,0,0,1-.8-.44,1.9,1.9,0,0,1-.47-.58,1.47,1.47,0,0,1-.17-.59h.77a1.42,1.42,0,0,0,.26.57A1.32,1.32,0,0,0,208,12a1.8,1.8,0,0,0,.55.17,3.92,3.92,0,0,0,.62,0A2.37,2.37,0,0,0,210.3,12a1.73,1.73,0,0,0,.67-.66,2.55,2.55,0,0,0,.29-.92,7.1,7.1,0,0,0,.05-1.06,2.23,2.23,0,0,1-1,.87,2.86,2.86,0,0,1-1.27.29,2.65,2.65,0,0,1-1.23-.27,2.55,2.55,0,0,1-.86-.72,3.1,3.1,0,0,1-.51-1,4.59,4.59,0,0,1-.17-1.25,5.07,5.07,0,0,1,.16-1.28,2.81,2.81,0,0,1,.5-1,2.38,2.38,0,0,1,.87-.69,3,3,0,0,1,1.28-.25,2.36,2.36,0,0,1,.61.08,2.86,2.86,0,0,1,.61.24,2.34,2.34,0,0,1,.54.4,2.1,2.1,0,0,1,.4.54h0Zm0,3.13a3.84,3.84,0,0,0-.14-1,2.57,2.57,0,0,0-.4-.84,1.9,1.9,0,0,0-.66-.56,1.94,1.94,0,0,0-.9-.2,2.15,2.15,0,0,0-.84.16,1.93,1.93,0,0,0-.67.47,2.23,2.23,0,0,0-.45.76,3.07,3.07,0,0,0-.16,1,4,4,0,0,0,.1,1.1,2.63,2.63,0,0,0,.38.89,1.91,1.91,0,0,0,.67.61,2,2,0,0,0,1,.22,1.83,1.83,0,0,0,.88-.21,2,2,0,0,0,.66-.56,2.59,2.59,0,0,0,.41-.83A3.4,3.4,0,0,0,211.32,7.22Z" transform="translate(0 -0.57)" fill="#767676"/>
            <path d="M219.37,10.33l-.35.08a1.84,1.84,0,0,1-.48.06,1.14,1.14,0,0,1-.82-.27,1.31,1.31,0,0,1-.28-1V4.69h-.88v-.6h.88V2.36h.72V4.09h1.16v.6h-1.16V9c0,.15,0,.28,0,.4a.66.66,0,0,0,.07.28.34.34,0,0,0,.19.16,1,1,0,0,0,.35,0l.29,0,.29-.06Z" transform="translate(0 -0.57)" fill="#767676"/>
            <path d="M220.52,10.31V1.67h.72V5a4.54,4.54,0,0,1,.89-.74,2.06,2.06,0,0,1,1.11-.29,2.82,2.82,0,0,1,1.07.2,1.82,1.82,0,0,1,.83.69,1.56,1.56,0,0,1,.27.69,6.18,6.18,0,0,1,0,.74v4.07h-.72V6.25A1.85,1.85,0,0,0,224.36,5a1.58,1.58,0,0,0-1.24-.42,1.74,1.74,0,0,0-.61.1,1.91,1.91,0,0,0-.5.27,1.8,1.8,0,0,0-.38.38,1.78,1.78,0,0,0-.24.46,2.27,2.27,0,0,0-.13.58c0,.18,0,.38,0,.6v3.35Z" transform="translate(0 -0.57)" fill="#767676"/>
            <path d="M230.05,6.68l.49-.07a1.79,1.79,0,0,0,.46-.13.38.38,0,0,0,.22-.28,1.75,1.75,0,0,0,0-.37,1.23,1.23,0,0,0-.35-.91,1.65,1.65,0,0,0-1.19-.35,3.31,3.31,0,0,0-.68.07,1.49,1.49,0,0,0-.55.23,1.26,1.26,0,0,0-.38.43,1.83,1.83,0,0,0-.2.68h-.73a2.24,2.24,0,0,1,.25-.94A1.91,1.91,0,0,1,228,4.4a2.29,2.29,0,0,1,.79-.36,3.86,3.86,0,0,1,1-.11,3.71,3.71,0,0,1,.88.1,2.07,2.07,0,0,1,.72.32,1.5,1.5,0,0,1,.48.59,2.14,2.14,0,0,1,.17.91V9.24q0,.42.15.53c.1.08.3.06.61-.05v.56l-.25.07a1.11,1.11,0,0,1-.32,0,1.42,1.42,0,0,1-.32,0,.55.55,0,0,1-.29-.11.71.71,0,0,1-.17-.22.92.92,0,0,1-.09-.28,2.06,2.06,0,0,1,0-.32,3.14,3.14,0,0,1-1,.77,3.08,3.08,0,0,1-1.27.26,2.84,2.84,0,0,1-.79-.11,1.89,1.89,0,0,1-.67-.34,1.67,1.67,0,0,1-.46-.56,1.71,1.71,0,0,1-.17-.79q0-1.58,2.17-1.87Zm1.21.36a3.52,3.52,0,0,1-.92.25l-.94.1a2.64,2.64,0,0,0-1.29.37,1.07,1.07,0,0,0-.46.95,1,1,0,0,0,.11.5,1.06,1.06,0,0,0,.3.35,1.27,1.27,0,0,0,.43.2,1.92,1.92,0,0,0,.5.07,3.25,3.25,0,0,0,.84-.11,2.28,2.28,0,0,0,.73-.33,1.69,1.69,0,0,0,.51-.56,1.63,1.63,0,0,0,.19-.81Z" transform="translate(0 -0.57)" fill="#767676"/>
            <path d="M236.05,10.33l-.35.08a1.84,1.84,0,0,1-.48.06,1.14,1.14,0,0,1-.82-.27,1.31,1.31,0,0,1-.28-1V4.69h-.88v-.6h.88V2.36h.72V4.09H236v.6h-1.16V9c0,.15,0,.28,0,.4a.66.66,0,0,0,.07.28.34.34,0,0,0,.19.16,1,1,0,0,0,.35,0l.29,0,.29-.06Z" transform="translate(0 -0.57)" fill="#767676"/>
            <path d="M242.72,10.33l-.35.08a1.84,1.84,0,0,1-.48.06,1.14,1.14,0,0,1-.82-.27,1.31,1.31,0,0,1-.28-1V4.69h-.88v-.6h.88V2.36h.72V4.09h1.16v.6h-1.16V9c0,.15,0,.28,0,.4a.66.66,0,0,0,.07.28.34.34,0,0,0,.19.16,1,1,0,0,0,.35,0l.29,0,.29-.06Z" transform="translate(0 -0.57)" fill="#767676"/>
            <path d="M243.95,2.74V1.67h.79V2.74Zm0,7.57V4.09h.72v6.22Z" transform="translate(0 -0.57)" fill="#767676"/>
            <path d="M247.16,10.31h-.72V4.09h.72V5h0a1.9,1.9,0,0,1,.79-.82,2.31,2.31,0,0,1,1.13-.28,2.45,2.45,0,0,1,.73.1,1.67,1.67,0,0,1,.51.26,1.52,1.52,0,0,1,.35.38,2.62,2.62,0,0,1,.23.47,2.1,2.1,0,0,1,.83-.91A2.39,2.39,0,0,1,253,3.92a2.09,2.09,0,0,1,1,.21,1.52,1.52,0,0,1,.58.55,2.16,2.16,0,0,1,.27.79,6.2,6.2,0,0,1,.07.91v3.92h-.72V6A1.75,1.75,0,0,0,253.89,5a1.23,1.23,0,0,0-1-.38,1.75,1.75,0,0,0-1.4.71,1.42,1.42,0,0,0-.2.37,3.16,3.16,0,0,0-.13.44,3.64,3.64,0,0,0-.07.46c0,.15,0,.29,0,.42v3.35h-.72V6A1.75,1.75,0,0,0,250,5a1.23,1.23,0,0,0-1-.38,1.74,1.74,0,0,0-1.4.71,1.39,1.39,0,0,0-.2.37,2.91,2.91,0,0,0-.13.44,3.47,3.47,0,0,0-.07.46c0,.15,0,.29,0,.42Z" transform="translate(0 -0.57)" fill="#767676"/>
            <path d="M257,7.37a3.34,3.34,0,0,0,.13,1,2.3,2.3,0,0,0,.39.78,1.88,1.88,0,0,0,.65.53,2,2,0,0,0,.91.2,2,2,0,0,0,1.21-.37A1.79,1.79,0,0,0,261,8.4h.8a3.9,3.9,0,0,1-.35.82,2.56,2.56,0,0,1-.54.66,2.33,2.33,0,0,1-.77.44,3.09,3.09,0,0,1-1,.16,3,3,0,0,1-1.28-.25,2.41,2.41,0,0,1-.89-.69,2.93,2.93,0,0,1-.52-1,4.67,4.67,0,0,1-.17-1.28,4.08,4.08,0,0,1,.2-1.28,3.27,3.27,0,0,1,.56-1,2.62,2.62,0,0,1,.89-.71,2.7,2.7,0,0,1,1.2-.26,2.48,2.48,0,0,1,2,.88,3.88,3.88,0,0,1,.72,2.56Zm4.06-.6a2.86,2.86,0,0,0-.13-.86,2,2,0,0,0-.37-.7,1.76,1.76,0,0,0-.62-.47,2,2,0,0,0-.85-.17,1.89,1.89,0,0,0-.85.18,2,2,0,0,0-.62.48,2.44,2.44,0,0,0-.41.7,3.25,3.25,0,0,0-.2.84Z" transform="translate(0 -0.57)" fill="#767676"/>
          </g>
          <circle cx="5.97" cy="5.97" r="5.72" fill="none" stroke="#d6dd21" stroke-width="0.5"/>
        </g>
        <g>
          <g>
            <path d="M409.08,7a2.09,2.09,0,0,0-.66-1.09,1.79,1.79,0,0,0-1.19-.39,1.86,1.86,0,0,0-.95.23,1.93,1.93,0,0,0-.65.61,2.71,2.71,0,0,0-.37.85,3.87,3.87,0,0,0-.12,1,4.09,4.09,0,0,0,.11,1,2.57,2.57,0,0,0,.37.84,1.87,1.87,0,0,0,.65.59,1.93,1.93,0,0,0,1,.22,1.84,1.84,0,0,0,1.29-.44,2.06,2.06,0,0,0,.62-1.22h.77a3.68,3.68,0,0,1-.31.94,2.49,2.49,0,0,1-.54.73,2.32,2.32,0,0,1-.79.47,3.37,3.37,0,0,1-2.33-.08,2.41,2.41,0,0,1-.89-.69,2.9,2.9,0,0,1-.52-1,4.77,4.77,0,0,1-.17-1.28,4.16,4.16,0,0,1,.19-1.24,3.25,3.25,0,0,1,.55-1,2.64,2.64,0,0,1,.89-.73,2.7,2.7,0,0,1,1.23-.27,2.77,2.77,0,0,1,1.75.52A2.39,2.39,0,0,1,409.81,7Z" transform="translate(0 -0.57)" fill="#767676"/>
            <path d="M413.82,11.41a3.23,3.23,0,0,1-1.12-.22,2.51,2.51,0,0,1-.91-.61,2.93,2.93,0,0,1-.62-1,4.08,4.08,0,0,1-.23-1.43,4.38,4.38,0,0,1,.18-1.28,3,3,0,0,1,.54-1,2.57,2.57,0,0,1,.9-.7,2.9,2.9,0,0,1,1.26-.26,2.93,2.93,0,0,1,1.27.26,2.58,2.58,0,0,1,.9.7,2.89,2.89,0,0,1,.54,1,4.61,4.61,0,0,1,.17,1.28,4.17,4.17,0,0,1-.2,1.34,3,3,0,0,1-.58,1,2.55,2.55,0,0,1-.91.67A2.91,2.91,0,0,1,413.82,11.41Zm2.11-3.28a4.24,4.24,0,0,0-.12-1,2.44,2.44,0,0,0-.37-.83,1.8,1.8,0,0,0-.65-.56,2.11,2.11,0,0,0-1-.2,2,2,0,0,0-1,.22,1.88,1.88,0,0,0-.65.59,2.56,2.56,0,0,0-.37.84,4,4,0,0,0-.12,1,3.89,3.89,0,0,0,.14,1.06,2.49,2.49,0,0,0,.4.83,1.8,1.8,0,0,0,.66.54,2.07,2.07,0,0,0,.91.19,2,2,0,0,0,1-.22,1.87,1.87,0,0,0,.65-.59,2.67,2.67,0,0,0,.37-.84A3.9,3.9,0,0,0,415.93,8.14Z" transform="translate(0 -0.57)" fill="#767676"/>
            <path d="M418.13,11.25V2.61h.72v8.64Z" transform="translate(0 -0.57)" fill="#767676"/>
            <path d="M423.15,11.41A3.24,3.24,0,0,1,422,11.2a2.51,2.51,0,0,1-.91-.61,3,3,0,0,1-.62-1,4.08,4.08,0,0,1-.23-1.43,4.34,4.34,0,0,1,.18-1.28,3,3,0,0,1,.54-1,2.56,2.56,0,0,1,.9-.7,2.89,2.89,0,0,1,1.26-.26,2.92,2.92,0,0,1,1.27.26,2.59,2.59,0,0,1,.9.7,2.87,2.87,0,0,1,.53,1A4.57,4.57,0,0,1,426,8.14a4.15,4.15,0,0,1-.2,1.34,3,3,0,0,1-.58,1,2.55,2.55,0,0,1-.91.67A2.91,2.91,0,0,1,423.15,11.41Zm2.11-3.28a4.24,4.24,0,0,0-.12-1,2.44,2.44,0,0,0-.37-.83,1.79,1.79,0,0,0-.65-.56,2.11,2.11,0,0,0-1-.2,2,2,0,0,0-1,.22,1.88,1.88,0,0,0-.65.59,2.58,2.58,0,0,0-.37.84,4,4,0,0,0-.12,1,3.89,3.89,0,0,0,.14,1.06,2.51,2.51,0,0,0,.4.83,1.8,1.8,0,0,0,.66.54,2.07,2.07,0,0,0,.91.19,2,2,0,0,0,1-.22,1.86,1.86,0,0,0,.65-.59,2.67,2.67,0,0,0,.37-.84A3.9,3.9,0,0,0,425.27,8.14Z" transform="translate(0 -0.57)" fill="#767676"/>
            <path d="M428.11,11.25h-.72V5h.72V6.19h0a2.08,2.08,0,0,1,.77-1,2.36,2.36,0,0,1,1.25-.29v.78a2.09,2.09,0,0,0-1,.19,1.66,1.66,0,0,0-.63.55,2.18,2.18,0,0,0-.32.82,5.34,5.34,0,0,0-.09,1Z" transform="translate(0 -0.57)" fill="#767676"/>
            <path d="M440.78,7.43h-6V6.71h6Zm0,2.33h-6V9h6Z" transform="translate(0 -0.57)" fill="#767676"/>
            <path d="M451.46,11.27l-.35.08a1.83,1.83,0,0,1-.48.06,1.14,1.14,0,0,1-.82-.27,1.31,1.31,0,0,1-.28-1V5.63h-.88V5h.88V3.3h.72V5h1.16v.6h-1.16V9.89c0,.15,0,.28,0,.4a.66.66,0,0,0,.07.28.34.34,0,0,0,.19.16,1,1,0,0,0,.35,0l.29,0,.29-.06Z" transform="translate(0 -0.57)" fill="#767676"/>
            <path d="M455.09,11.41A3.24,3.24,0,0,1,454,11.2a2.51,2.51,0,0,1-.91-.61,3,3,0,0,1-.62-1,4.08,4.08,0,0,1-.23-1.43,4.34,4.34,0,0,1,.18-1.28,3,3,0,0,1,.54-1,2.56,2.56,0,0,1,.9-.7,2.89,2.89,0,0,1,1.26-.26,2.92,2.92,0,0,1,1.27.26,2.59,2.59,0,0,1,.9.7,2.87,2.87,0,0,1,.53,1A4.57,4.57,0,0,1,458,8.14a4.15,4.15,0,0,1-.2,1.34,3,3,0,0,1-.58,1,2.55,2.55,0,0,1-.91.67A2.91,2.91,0,0,1,455.09,11.41Zm2.11-3.28a4.24,4.24,0,0,0-.12-1,2.44,2.44,0,0,0-.37-.83,1.79,1.79,0,0,0-.65-.56,2.11,2.11,0,0,0-1-.2,2,2,0,0,0-1,.22,1.88,1.88,0,0,0-.65.59,2.58,2.58,0,0,0-.37.84,4,4,0,0,0-.12,1,3.89,3.89,0,0,0,.14,1.06,2.51,2.51,0,0,0,.4.83,1.8,1.8,0,0,0,.66.54,2.07,2.07,0,0,0,.91.19,2,2,0,0,0,1-.22,1.86,1.86,0,0,0,.65-.59,2.67,2.67,0,0,0,.37-.84A3.9,3.9,0,0,0,457.2,8.14Z" transform="translate(0 -0.57)" fill="#767676"/>
            <path d="M461.47,11.27l-.35.08a1.83,1.83,0,0,1-.48.06,1.14,1.14,0,0,1-.82-.27,1.31,1.31,0,0,1-.28-1V5.63h-.88V5h.88V3.3h.72V5h1.16v.6h-1.16V9.89c0,.15,0,.28,0,.4a.66.66,0,0,0,.07.28.34.34,0,0,0,.19.16,1,1,0,0,0,.35,0l.29,0,.29-.06Z" transform="translate(0 -0.57)" fill="#767676"/>
            <path d="M465.48,7.62l.49-.07a1.77,1.77,0,0,0,.46-.13.38.38,0,0,0,.22-.28,1.81,1.81,0,0,0,0-.37,1.23,1.23,0,0,0-.35-.91,1.65,1.65,0,0,0-1.19-.35,3.31,3.31,0,0,0-.68.07,1.5,1.5,0,0,0-.55.23,1.26,1.26,0,0,0-.38.43,1.83,1.83,0,0,0-.2.68h-.73a2.23,2.23,0,0,1,.25-.94,1.91,1.91,0,0,1,.56-.64A2.3,2.3,0,0,1,464.2,5a3.88,3.88,0,0,1,1-.11A3.7,3.7,0,0,1,466,5a2.05,2.05,0,0,1,.72.32,1.52,1.52,0,0,1,.48.59,2.16,2.16,0,0,1,.17.91v3.38c0,.28,0,.46.15.53s.3.06.61-.05v.56l-.25.07a1.11,1.11,0,0,1-.32,0,1.42,1.42,0,0,1-.32,0,.56.56,0,0,1-.29-.11.69.69,0,0,1-.17-.22.89.89,0,0,1-.09-.28,1.94,1.94,0,0,1,0-.32,3.12,3.12,0,0,1-1,.77,3.08,3.08,0,0,1-1.27.26,2.84,2.84,0,0,1-.79-.11,1.89,1.89,0,0,1-.67-.34,1.66,1.66,0,0,1-.46-.56,1.69,1.69,0,0,1-.17-.79q0-1.58,2.17-1.87Zm1.21.36a3.52,3.52,0,0,1-.92.25l-.94.1a2.64,2.64,0,0,0-1.29.37,1.07,1.07,0,0,0-.46.95,1,1,0,0,0,.11.5,1,1,0,0,0,.3.35,1.26,1.26,0,0,0,.43.2,1.92,1.92,0,0,0,.5.07,3.25,3.25,0,0,0,.84-.11,2.28,2.28,0,0,0,.73-.33,1.7,1.7,0,0,0,.51-.56,1.64,1.64,0,0,0,.19-.81Z" transform="translate(0 -0.57)" fill="#767676"/>
            <path d="M469.4,11.25V2.61h.72v8.64Z" transform="translate(0 -0.57)" fill="#767676"/>
            <path d="M477.77,11.41a3.24,3.24,0,0,1-1.12-.22,2.51,2.51,0,0,1-.91-.61,3,3,0,0,1-.62-1,4.08,4.08,0,0,1-.23-1.43,4.34,4.34,0,0,1,.18-1.28,3,3,0,0,1,.54-1,2.56,2.56,0,0,1,.9-.7,2.89,2.89,0,0,1,1.26-.26,2.92,2.92,0,0,1,1.27.26,2.59,2.59,0,0,1,.9.7,2.87,2.87,0,0,1,.53,1,4.57,4.57,0,0,1,.17,1.28,4.15,4.15,0,0,1-.2,1.34,3,3,0,0,1-.58,1,2.55,2.55,0,0,1-.91.67A2.91,2.91,0,0,1,477.77,11.41Zm2.11-3.28a4.24,4.24,0,0,0-.12-1,2.44,2.44,0,0,0-.37-.83,1.79,1.79,0,0,0-.65-.56,2.11,2.11,0,0,0-1-.2,2,2,0,0,0-1,.22,1.88,1.88,0,0,0-.65.59,2.58,2.58,0,0,0-.37.84,4,4,0,0,0-.12,1,3.89,3.89,0,0,0,.14,1.06,2.51,2.51,0,0,0,.4.83,1.8,1.8,0,0,0,.66.54,2.07,2.07,0,0,0,.91.19,2,2,0,0,0,1-.22,1.86,1.86,0,0,0,.65-.59,2.67,2.67,0,0,0,.37-.84A3.9,3.9,0,0,0,479.88,8.14Z" transform="translate(0 -0.57)" fill="#767676"/>
            <path d="M481.34,5.63V5h.92V4a2,2,0,0,1,.3-1.18,1.15,1.15,0,0,1,1-.43h.31l.29,0v.66a1.81,1.81,0,0,0-.43-.06.78.78,0,0,0-.43.1.58.58,0,0,0-.23.27,1.19,1.19,0,0,0-.09.38c0,.14,0,.28,0,.43V5h1.2v.6H483v5.62h-.72V5.63Z" transform="translate(0 -0.57)" fill="#767676"/>
            <path d="M489.39,11.25h-.72V5h.72V6.19h0a2.08,2.08,0,0,1,.77-1,2.36,2.36,0,0,1,1.25-.29v.78a2.09,2.09,0,0,0-1,.19,1.66,1.66,0,0,0-.63.55,2.18,2.18,0,0,0-.32.82,5.34,5.34,0,0,0-.09,1Z" transform="translate(0 -0.57)" fill="#767676"/>
            <path d="M492.71,3.67V2.61h.79V3.67Zm0,7.57V5h.72v6.22Z" transform="translate(0 -0.57)" fill="#767676"/>
            <path d="M500.1,2.61h.72v8.64h-.72V10.15h0a2,2,0,0,1-.4.55,2.41,2.41,0,0,1-.54.39,2.86,2.86,0,0,1-.61.24,2.36,2.36,0,0,1-.61.08,3,3,0,0,1-1.29-.25,2.39,2.39,0,0,1-.87-.69,2.8,2.8,0,0,1-.5-1,5.11,5.11,0,0,1-.16-1.28,4.63,4.63,0,0,1,.17-1.25,3.1,3.1,0,0,1,.51-1,2.54,2.54,0,0,1,.86-.72,2.65,2.65,0,0,1,1.23-.27,2.86,2.86,0,0,1,1.27.29,2.24,2.24,0,0,1,1,.87Zm0,5.51a3.4,3.4,0,0,0-.14-1,2.57,2.57,0,0,0-.41-.83,2,2,0,0,0-.66-.56,1.83,1.83,0,0,0-.88-.21,2,2,0,0,0-1,.22,1.91,1.91,0,0,0-.67.61,2.61,2.61,0,0,0-.38.89,4.07,4.07,0,0,0-.1,1.1,3.07,3.07,0,0,0,.16,1,2.21,2.21,0,0,0,.45.76,1.93,1.93,0,0,0,.67.47,2.15,2.15,0,0,0,.84.16,1.94,1.94,0,0,0,.9-.2,1.9,1.9,0,0,0,.66-.56,2.55,2.55,0,0,0,.4-.84A3.84,3.84,0,0,0,500.1,8.11Z" transform="translate(0 -0.57)" fill="#767676"/>
            <path d="M503.07,8.3a3.37,3.37,0,0,0,.13,1,2.3,2.3,0,0,0,.39.78,1.89,1.89,0,0,0,.65.53,2,2,0,0,0,.91.2,2,2,0,0,0,1.21-.37A1.79,1.79,0,0,0,507,9.34h.8a3.9,3.9,0,0,1-.35.82,2.54,2.54,0,0,1-.54.66,2.32,2.32,0,0,1-.77.44,3.09,3.09,0,0,1-1,.16,3,3,0,0,1-1.29-.25,2.41,2.41,0,0,1-.89-.69,2.91,2.91,0,0,1-.52-1,4.67,4.67,0,0,1-.17-1.28,4.05,4.05,0,0,1,.2-1.28,3.28,3.28,0,0,1,.56-1,2.63,2.63,0,0,1,.89-.71,2.7,2.7,0,0,1,1.2-.26,2.48,2.48,0,0,1,2,.88,3.87,3.87,0,0,1,.72,2.56Zm4.05-.6a2.86,2.86,0,0,0-.12-.86,2,2,0,0,0-.37-.7,1.76,1.76,0,0,0-.62-.47,2,2,0,0,0-.85-.17,1.89,1.89,0,0,0-.85.18,2,2,0,0,0-.62.48,2.41,2.41,0,0,0-.41.7,3.21,3.21,0,0,0-.2.84Z" transform="translate(0 -0.57)" fill="#767676"/>
            <path d="M510.06,11.25h-.72V5h.72V6.19h0a2.08,2.08,0,0,1,.77-1,2.36,2.36,0,0,1,1.25-.29v.78a2.09,2.09,0,0,0-1,.19,1.66,1.66,0,0,0-.63.55,2.18,2.18,0,0,0-.32.82,5.34,5.34,0,0,0-.09,1Z" transform="translate(0 -0.57)" fill="#767676"/>
            <path d="M513.72,9.3a1.83,1.83,0,0,0,.61,1.13,2.05,2.05,0,0,0,1.25.33,2.15,2.15,0,0,0,.68-.1,1.36,1.36,0,0,0,.47-.26A1.12,1.12,0,0,0,517,10a1,1,0,0,0,.1-.43.8.8,0,0,0-.29-.68,2.23,2.23,0,0,0-.74-.35,9.48,9.48,0,0,0-1-.22,4.7,4.7,0,0,1-1-.27,1.91,1.91,0,0,1-.74-.52,1.39,1.39,0,0,1-.29-.95,1.62,1.62,0,0,1,.57-1.28,2.38,2.38,0,0,1,1.61-.5,2.75,2.75,0,0,1,1.64.45,2.06,2.06,0,0,1,.76,1.51H517a1.35,1.35,0,0,0-.55-1,2,2,0,0,0-1.13-.29,1.62,1.62,0,0,0-1,.29,1,1,0,0,0-.36.77.76.76,0,0,0,.29.64,2.38,2.38,0,0,0,.74.36q.44.14,1,.25a4.76,4.76,0,0,1,1,.31,2.11,2.11,0,0,1,.74.53,1.38,1.38,0,0,1,.29.94,1.57,1.57,0,0,1-.19.79,1.67,1.67,0,0,1-.53.57,2.44,2.44,0,0,1-.8.34,4.22,4.22,0,0,1-1,.11,2.73,2.73,0,0,1-1-.16,2.12,2.12,0,0,1-.73-.45,2.06,2.06,0,0,1-.47-.67A2.37,2.37,0,0,1,513,9.3Z" transform="translate(0 -0.57)" fill="#767676"/>
            <path d="M527.43,2.61h.72v8.64h-.72V10.15h0a1.94,1.94,0,0,1-.4.55,2.43,2.43,0,0,1-.54.39,2.86,2.86,0,0,1-.61.24,2.36,2.36,0,0,1-.61.08,3,3,0,0,1-1.28-.25,2.37,2.37,0,0,1-.87-.69,2.8,2.8,0,0,1-.5-1,5.07,5.07,0,0,1-.16-1.28,4.59,4.59,0,0,1,.17-1.25,3.1,3.1,0,0,1,.51-1,2.54,2.54,0,0,1,.86-.72,2.65,2.65,0,0,1,1.23-.27,2.86,2.86,0,0,1,1.27.29,2.23,2.23,0,0,1,1,.87Zm0,5.51a3.4,3.4,0,0,0-.14-1,2.59,2.59,0,0,0-.41-.83,2,2,0,0,0-.66-.56,1.84,1.84,0,0,0-.88-.21,2,2,0,0,0-1,.22,1.91,1.91,0,0,0-.67.61,2.63,2.63,0,0,0-.38.89,4,4,0,0,0-.1,1.1,3.07,3.07,0,0,0,.16,1,2.23,2.23,0,0,0,.45.76,1.93,1.93,0,0,0,.67.47,2.15,2.15,0,0,0,.84.16,1.94,1.94,0,0,0,.9-.2,1.9,1.9,0,0,0,.66-.56,2.57,2.57,0,0,0,.4-.84A3.84,3.84,0,0,0,527.43,8.11Z" transform="translate(0 -0.57)" fill="#767676"/>
            <path d="M534.18,5h.72v6.22h-.72v-.86l-.32.35a2.53,2.53,0,0,1-.41.33,2.41,2.41,0,0,1-.55.25,2.34,2.34,0,0,1-.72.1,2.73,2.73,0,0,1-1-.17,1.71,1.71,0,0,1-.68-.49,1.93,1.93,0,0,1-.37-.73,3.44,3.44,0,0,1-.11-.91V5h.72V9.11a1.81,1.81,0,0,0,.37,1.23,1.55,1.55,0,0,0,1.22.43,1.78,1.78,0,0,0,.8-.17,1.66,1.66,0,0,0,.59-.49,2.33,2.33,0,0,0,.37-.74,3.24,3.24,0,0,0,.13-.95Z" transform="translate(0 -0.57)" fill="#767676"/>
            <path d="M537.39,11.25h-.72V5h.72V6.19h0a2.08,2.08,0,0,1,.77-1,2.36,2.36,0,0,1,1.25-.29v.78a2.09,2.09,0,0,0-1,.19,1.67,1.67,0,0,0-.63.55,2.18,2.18,0,0,0-.32.82,5.34,5.34,0,0,0-.09,1Z" transform="translate(0 -0.57)" fill="#767676"/>
            <path d="M540.71,3.67V2.61h.79V3.67Zm0,7.57V5h.72v6.22Z" transform="translate(0 -0.57)" fill="#767676"/>
            <path d="M544,11.25h-.72V5H544v.86a4.54,4.54,0,0,1,.89-.74A2.06,2.06,0,0,1,546,4.86a2.82,2.82,0,0,1,1.07.2,1.82,1.82,0,0,1,.83.69,1.56,1.56,0,0,1,.27.69,6.18,6.18,0,0,1,0,.74v4.07h-.72V7.19a1.85,1.85,0,0,0-.37-1.26,1.58,1.58,0,0,0-1.24-.42,1.74,1.74,0,0,0-.61.1,1.91,1.91,0,0,0-.5.27,1.8,1.8,0,0,0-.38.38,1.78,1.78,0,0,0-.24.46,2.27,2.27,0,0,0-.13.58c0,.18,0,.38,0,.6Z" transform="translate(0 -0.57)" fill="#767676"/>
            <path d="M554.77,5h.72v5.62a5.51,5.51,0,0,1-.13,1.19,2.56,2.56,0,0,1-.45,1,2.25,2.25,0,0,1-.89.69,4.15,4.15,0,0,1-2.63.08,2.55,2.55,0,0,1-.8-.44,1.9,1.9,0,0,1-.47-.58,1.47,1.47,0,0,1-.17-.59h.77a1.42,1.42,0,0,0,.26.57,1.32,1.32,0,0,0,.43.35,1.8,1.8,0,0,0,.55.17,3.92,3.92,0,0,0,.62,0,2.37,2.37,0,0,0,1.18-.25,1.73,1.73,0,0,0,.67-.66,2.55,2.55,0,0,0,.29-.92,7.1,7.1,0,0,0,.05-1.06,2.23,2.23,0,0,1-1,.87,2.86,2.86,0,0,1-1.27.29,2.65,2.65,0,0,1-1.23-.27,2.55,2.55,0,0,1-.86-.72,3.1,3.1,0,0,1-.51-1,4.59,4.59,0,0,1-.17-1.25,5.07,5.07,0,0,1,.16-1.28,2.81,2.81,0,0,1,.5-1,2.38,2.38,0,0,1,.87-.69,3,3,0,0,1,1.28-.25,2.36,2.36,0,0,1,.61.08,2.86,2.86,0,0,1,.61.24,2.34,2.34,0,0,1,.54.4,2.1,2.1,0,0,1,.4.54h0Zm0,3.13a3.84,3.84,0,0,0-.14-1,2.57,2.57,0,0,0-.4-.84,1.9,1.9,0,0,0-.66-.56,1.94,1.94,0,0,0-.9-.2,2.15,2.15,0,0,0-.84.16,1.93,1.93,0,0,0-.67.47,2.23,2.23,0,0,0-.45.76,3.07,3.07,0,0,0-.16,1,4,4,0,0,0,.1,1.1,2.63,2.63,0,0,0,.38.89,1.91,1.91,0,0,0,.67.61,2,2,0,0,0,1,.22,1.83,1.83,0,0,0,.88-.21,2,2,0,0,0,.66-.56,2.59,2.59,0,0,0,.41-.83A3.4,3.4,0,0,0,554.77,8.16Z" transform="translate(0 -0.57)" fill="#767676"/>
            <path d="M562.82,11.27l-.35.08a1.84,1.84,0,0,1-.48.06,1.14,1.14,0,0,1-.82-.27,1.31,1.31,0,0,1-.28-1V5.63H560V5h.88V3.3h.72V5h1.16v.6h-1.16V9.89c0,.15,0,.28,0,.4a.66.66,0,0,0,.07.28.34.34,0,0,0,.19.16,1,1,0,0,0,.35,0l.29,0,.29-.06Z" transform="translate(0 -0.57)" fill="#767676"/>
            <path d="M564,11.25V2.61h.72V5.89a4.54,4.54,0,0,1,.89-.74,2.06,2.06,0,0,1,1.11-.29,2.82,2.82,0,0,1,1.07.2,1.82,1.82,0,0,1,.83.69,1.56,1.56,0,0,1,.27.69,6.18,6.18,0,0,1,0,.74v4.07h-.72V7.19a1.85,1.85,0,0,0-.37-1.26,1.58,1.58,0,0,0-1.24-.42,1.74,1.74,0,0,0-.61.1,1.91,1.91,0,0,0-.5.27,1.8,1.8,0,0,0-.38.38,1.78,1.78,0,0,0-.24.46,2.27,2.27,0,0,0-.13.58c0,.18,0,.38,0,.6v3.35Z" transform="translate(0 -0.57)" fill="#767676"/>
            <path d="M573.5,7.62l.49-.07a1.79,1.79,0,0,0,.46-.13.38.38,0,0,0,.22-.28,1.75,1.75,0,0,0,0-.37,1.23,1.23,0,0,0-.35-.91,1.65,1.65,0,0,0-1.19-.35,3.31,3.31,0,0,0-.68.07,1.49,1.49,0,0,0-.55.23,1.26,1.26,0,0,0-.38.43,1.83,1.83,0,0,0-.2.68h-.73a2.24,2.24,0,0,1,.25-.94,1.91,1.91,0,0,1,.56-.64,2.29,2.29,0,0,1,.79-.36,3.86,3.86,0,0,1,1-.11,3.71,3.71,0,0,1,.88.1,2.07,2.07,0,0,1,.72.32,1.5,1.5,0,0,1,.48.59,2.14,2.14,0,0,1,.17.91v3.38q0,.42.15.53c.1.08.3.06.61-.05v.56l-.25.07a1.11,1.11,0,0,1-.32,0,1.42,1.42,0,0,1-.32,0,.55.55,0,0,1-.29-.11.71.71,0,0,1-.17-.22.92.92,0,0,1-.09-.28,2.06,2.06,0,0,1,0-.32,3.14,3.14,0,0,1-1,.77,3.08,3.08,0,0,1-1.27.26,2.84,2.84,0,0,1-.79-.11A1.89,1.89,0,0,1,571,11a1.67,1.67,0,0,1-.46-.56,1.71,1.71,0,0,1-.17-.79q0-1.58,2.17-1.87Zm1.21.36a3.52,3.52,0,0,1-.92.25l-.94.1a2.64,2.64,0,0,0-1.29.37,1.07,1.07,0,0,0-.46.95,1,1,0,0,0,.11.5,1.06,1.06,0,0,0,.3.35,1.27,1.27,0,0,0,.43.2,1.92,1.92,0,0,0,.5.07,3.25,3.25,0,0,0,.84-.11,2.28,2.28,0,0,0,.73-.33,1.69,1.69,0,0,0,.51-.56,1.63,1.63,0,0,0,.19-.81Z" transform="translate(0 -0.57)" fill="#767676"/>
            <path d="M579.5,11.27l-.35.08a1.84,1.84,0,0,1-.48.06,1.14,1.14,0,0,1-.82-.27,1.31,1.31,0,0,1-.28-1V5.63h-.88V5h.88V3.3h.72V5h1.16v.6h-1.16V9.89c0,.15,0,.28,0,.4a.66.66,0,0,0,.07.28.34.34,0,0,0,.19.16,1,1,0,0,0,.35,0l.29,0,.29-.06Z" transform="translate(0 -0.57)" fill="#767676"/>
            <path d="M586.17,11.27l-.35.08a1.84,1.84,0,0,1-.48.06,1.14,1.14,0,0,1-.82-.27,1.31,1.31,0,0,1-.28-1V5.63h-.88V5h.88V3.3H585V5h1.16v.6H585V9.89c0,.15,0,.28,0,.4a.66.66,0,0,0,.07.28.34.34,0,0,0,.19.16,1,1,0,0,0,.35,0l.29,0,.29-.06Z" transform="translate(0 -0.57)" fill="#767676"/>
            <path d="M587.4,3.67V2.61h.79V3.67Zm0,7.57V5h.72v6.22Z" transform="translate(0 -0.57)" fill="#767676"/>
            <path d="M590.61,11.25h-.72V5h.72V6h0a1.9,1.9,0,0,1,.79-.82,2.31,2.31,0,0,1,1.13-.28,2.45,2.45,0,0,1,.73.1,1.67,1.67,0,0,1,.51.26,1.52,1.52,0,0,1,.35.38,2.62,2.62,0,0,1,.23.47,2.1,2.1,0,0,1,.83-.91,2.39,2.39,0,0,1,1.19-.29,2.09,2.09,0,0,1,1,.21,1.52,1.52,0,0,1,.58.55,2.16,2.16,0,0,1,.27.79,6.2,6.2,0,0,1,.07.91v3.92h-.72V6.95a1.75,1.75,0,0,0-.28-1.06,1.23,1.23,0,0,0-1-.38,1.75,1.75,0,0,0-1.4.71,1.42,1.42,0,0,0-.2.37,3.16,3.16,0,0,0-.13.44,3.64,3.64,0,0,0-.07.46c0,.15,0,.29,0,.42v3.35h-.72V6.95a1.75,1.75,0,0,0-.28-1.06,1.23,1.23,0,0,0-1-.38,1.74,1.74,0,0,0-1.4.71,1.39,1.39,0,0,0-.2.37,2.91,2.91,0,0,0-.13.44,3.47,3.47,0,0,0-.07.46c0,.15,0,.29,0,.42Z" transform="translate(0 -0.57)" fill="#767676"/>
            <path d="M600.43,8.3a3.34,3.34,0,0,0,.13,1A2.3,2.3,0,0,0,601,10a1.88,1.88,0,0,0,.65.53,2,2,0,0,0,.91.2,2,2,0,0,0,1.21-.37,1.79,1.79,0,0,0,.67-1.06h.8a3.9,3.9,0,0,1-.35.82,2.56,2.56,0,0,1-.54.66,2.33,2.33,0,0,1-.77.44,3.09,3.09,0,0,1-1,.16,3,3,0,0,1-1.28-.25,2.41,2.41,0,0,1-.89-.69,2.93,2.93,0,0,1-.52-1,4.67,4.67,0,0,1-.17-1.28,4.08,4.08,0,0,1,.2-1.28,3.27,3.27,0,0,1,.56-1,2.62,2.62,0,0,1,.89-.71,2.7,2.7,0,0,1,1.2-.26,2.48,2.48,0,0,1,2,.88,3.88,3.88,0,0,1,.72,2.56Zm4.06-.6a2.86,2.86,0,0,0-.13-.86,2,2,0,0,0-.37-.7,1.76,1.76,0,0,0-.62-.47,2,2,0,0,0-.85-.17,1.89,1.89,0,0,0-.85.18,2,2,0,0,0-.62.48,2.44,2.44,0,0,0-.41.7,3.25,3.25,0,0,0-.2.84Z" transform="translate(0 -0.57)" fill="#767676"/>
          </g>
          <circle cx="385.55" cy="7.15" r="4.85" fill="#d7de21" fill-opacity="0.4" stroke="#d7de21" stroke-width="0.5"/>
          <circle cx="367.56" cy="7.15" r="4.85" fill="#646910" fill-opacity="0.4" stroke="#646910" stroke-width="0.5"/>
          <circle cx="349.57" cy="7.15" r="4.85" fill="#7d561b" fill-opacity="0.4" stroke="#7d561b" stroke-width="0.5"/>
          <circle cx="331.58" cy="7.15" r="4.85" fill="#974f24" fill-opacity="0.4" stroke="#974f24" stroke-width="0.5"/>
        </g>
      </g>
    </g>
  </g>
</svg>
