<svg fill="#93BC8E" xmlns="http://www.w3.org/2000/svg" xmlns:xlink="http://www.w3.org/1999/xlink" version="1.1" x="0px" y="0px" viewBox="0 0 100 100" style="enable-background:new 0 0 100 100;" xml:space="preserve"><style type="text/css">
	.st0{fill:none;stroke:#93BC8E;stroke-width:4;stroke-miterlimit:10;}
</style><path class="st0" d="M17.9,50.5V18.3c0-4.9,5.3-8,9.6-5.6l28.4,16.2l28,16.1c4.3,2.5,4.3,8.7,0,11.2L55.8,72.2L27.6,88.3  c-4.3,2.5-9.6-0.6-9.6-5.6V50.5z"></path><path class="st0" d="M25.9,50V27.5c0-3.4,3.7-5.6,6.7-3.9l19.8,11.3l19.5,11.2c3,1.7,3,6.1,0,7.8L52.3,65.1L32.6,76.4  c-3,1.7-6.7-0.4-6.7-3.9V50z"></path></svg>